<svg xmlns="http://www.w3.org/2000/svg" width="88" height="61" viewBox="0 0 88 61" fill="none"><path fill-rule="evenodd" clip-rule="evenodd" d="M30.44 5.63999C26.63 8.13999 24.27 11.61 24.27 15.46C24.27 17.58 24.95 19.46 26.1 21.2L30.44 5.63999ZM46.29 21.28H40.12L38.14 28.54C41.519 29.2879 45.006 29.4133 48.43 28.91L46.29 21.28V21.28ZM36.16 27.93L34.33 21.28H28.23L27.7 23.17C30.0914 25.4357 32.9932 27.0924 36.16 28V27.92V27.93ZM58.18 21.28H52L51.47 23.25L52.91 27.93C55.28 27.25 57.41 26.19 59.16 24.91L58.16 21.28H58.18ZM57.65 19.47L55.05 10.33L52.55 19.47H57.65ZM62.83 21.28C64.05 19.54 64.73 17.58 64.73 15.46C64.73 11.46 62.22 7.89999 58.1 5.32999L62.83 21.28V21.28ZM33.79 19.47L31.28 10.33L28.76 19.47H33.79ZM50.41 19.47L54.83 3.66999C51.7644 2.48621 48.5156 1.84662 45.23 1.77999L50.41 19.47V19.47ZM43.17 10.33L40.65 19.47H45.75L43.17 10.33ZM33.87 3.82999L38.52 19.47L43.4 1.77999C39.97 1.93999 36.7 2.61999 33.87 3.81999V3.82999ZM20 15.45C20 7.20999 30.97 0.48999 44.46 0.48999C58.02 0.49999 69 7.21999 69 15.46C69 23.78 58.02 30.5 44.46 30.5C30.97 30.5 20 23.78 20 15.46V15.45Z" fill="black"></path><path d="M15.27 47L15.77 45.58H18.59L19.09 47H20.57L18 40.02H16.38L13.77 47H15.27ZM18.21 44.51H16.14L17.18 41.53L18.22 44.51H18.21ZM23.76 47V44.38H24.92C25.72 44.38 26.34 44.18 26.78 43.78C27.22 43.38 27.43 42.84 27.43 42.17C27.43 41.48 27.23 40.94 26.8 40.54C26.38 40.14 25.75 39.94 24.91 39.94H22.34V47H23.75H23.76ZM24.76 43.25H23.76V41.08H24.76C25.21 41.08 25.52 41.18 25.72 41.36C25.91 41.55 26.01 41.82 26.01 42.17C26.01 42.89 25.59 43.25 24.77 43.25H24.76ZM30.76 47V44.38H31.93C32.73 44.38 33.35 44.18 33.79 43.78C34.23 43.38 34.45 42.84 34.45 42.17C34.45 41.48 34.23 40.94 33.81 40.54C33.39 40.14 32.76 39.94 31.93 39.94H29.36V47H30.76V47ZM31.78 43.25H30.76V41.08H31.77C32.22 41.08 32.53 41.18 32.73 41.36C32.92 41.55 33.02 41.82 33.02 42.17C33.02 42.89 32.6 43.25 31.78 43.25V43.25ZM37.78 47V44.25H38.39L40.03 47H41.59L39.83 44.18C40.3301 44.0958 40.7859 43.8415 41.12 43.46C41.42 43.1 41.57 42.66 41.57 42.12C41.57 41.47 41.35 40.94 40.92 40.54C40.49 40.14 39.87 39.94 39.04 39.94H36.35V47H37.76H37.78ZM38.93 43.28H37.77V41.13H38.93C39.35 41.13 39.65 41.23 39.85 41.41C40.05 41.61 40.15 41.87 40.15 42.21C40.15 42.92 39.75 43.28 38.93 43.28V43.28ZM46.83 47.07C47.5 47.07 48.09 46.92 48.63 46.61C49.17 46.31 49.59 45.87 49.9 45.32C50.21 44.77 50.37 44.14 50.37 43.45C50.37 42.75 50.21 42.13 49.9 41.58C49.602 41.045 49.1627 40.6021 48.63 40.3C48.0815 39.9896 47.4602 39.8308 46.83 39.84C46.18 39.84 45.58 39.99 45.04 40.3C44.5 40.6 44.08 41.03 43.77 41.58C43.4556 42.1523 43.297 42.7971 43.31 43.45C43.31 44.15 43.46 44.77 43.77 45.32C44.08 45.87 44.5 46.3 45.04 46.61C45.58 46.91 46.18 47.07 46.84 47.07H46.83ZM46.83 45.76C46.4515 45.7792 46.0757 45.686 45.75 45.492C45.4243 45.298 45.1634 45.012 45 44.67C44.822 44.2886 44.7364 43.8706 44.75 43.45C44.75 42.98 44.83 42.57 45.01 42.22C45.1749 41.8798 45.4364 41.5959 45.762 41.4037C46.0875 41.2116 46.4625 41.1199 46.84 41.14C47.2169 41.1227 47.5905 41.2169 47.9142 41.4108C48.2379 41.6046 48.4973 41.8896 48.66 42.23C48.84 42.57 48.92 42.98 48.92 43.45C48.92 43.92 48.84 44.32 48.66 44.67C48.4966 45.012 48.2357 45.298 47.91 45.492C47.5844 45.686 47.2086 45.7792 46.83 45.76V45.76ZM56.22 47L58.72 39.94H57.2L55.3 45.53L53.4 39.94H51.9L54.4 47H56.2H56.22ZM64.69 47V45.87H61.89V43.97H64.39V42.89H61.89V41.06H64.69V39.94H60.47V47H64.69ZM69.23 47C70 47 70.66 46.85 71.22 46.55C71.78 46.25 72.2 45.85 72.5 45.31C72.79 44.78 72.94 44.16 72.94 43.46C72.94 42.76 72.79 42.14 72.49 41.61C72.1998 41.0817 71.7573 40.6531 71.22 40.38C70.6053 40.0753 69.9259 39.9243 69.24 39.94H66.7V47H69.22H69.23ZM69.12 45.74H68.14V41.17H69.12C69.87 41.17 70.46 41.37 70.88 41.77C71.3 42.17 71.51 42.73 71.51 43.46C71.51 44.18 71.3 44.74 70.88 45.14C70.46 45.54 69.88 45.74 69.11 45.74H69.12ZM8.69001 59L9.19001 57.58H12.02L12.51 59H14L11.41 52.02H9.80001L7.20001 59H8.69001V59ZM11.64 56.51H9.56001L10.6 53.53L11.64 56.51ZM18.51 59.07C19.06 59.07 19.55 58.96 19.98 58.74C20.41 58.52 20.74 58.19 20.98 57.74C21.23 57.28 21.35 56.74 21.35 56.08V51.94H19.95V56.08C19.95 56.63 19.83 57.05 19.59 57.32C19.34 57.6 18.99 57.74 18.54 57.74C18.08 57.74 17.73 57.6 17.49 57.32C17.24 57.05 17.12 56.63 17.12 56.08V51.94H15.72V56.08C15.72 57.06 15.97 57.8 16.48 58.31C16.98 58.81 17.66 59.07 18.51 59.07V59.07ZM26.44 59V53.06H28.39V51.94H23.09V53.06H25.03V59H26.44V59ZM33.48 59.07C34.14 59.07 34.74 58.92 35.28 58.61C35.81 58.31 36.24 57.87 36.55 57.32C36.85 56.77 37.01 56.14 37.01 55.45C37.01 54.75 36.86 54.13 36.55 53.58C36.252 53.045 35.8127 52.6021 35.28 52.3C34.7315 51.9896 34.1102 51.8308 33.48 51.84C32.82 51.84 32.22 51.99 31.68 52.3C31.15 52.6 30.73 53.03 30.42 53.58C30.1022 54.1513 29.9401 54.7962 29.95 55.45C29.95 56.15 30.11 56.77 30.41 57.32C30.73 57.87 31.15 58.3 31.69 58.61C32.22 58.91 32.82 59.07 33.48 59.07V59.07ZM33.48 57.76C33.1031 57.7772 32.7295 57.683 32.4058 57.4892C32.0821 57.2953 31.8227 57.0104 31.66 56.67C31.4751 56.2903 31.3826 55.8722 31.39 55.45C31.39 54.98 31.48 54.57 31.66 54.22C31.8242 53.8814 32.0842 53.5986 32.4078 53.4066C32.7313 53.2146 33.1042 53.1219 33.48 53.14C33.8586 53.1207 34.2344 53.214 34.56 53.4079C34.8857 53.6019 35.1466 53.8879 35.31 54.23C35.48 54.57 35.57 54.98 35.57 55.45C35.57 55.92 35.48 56.32 35.31 56.67C35.1466 57.012 34.8857 57.298 34.56 57.492C34.2344 57.686 33.8586 57.7792 33.48 57.76ZM43.66 59V56.25H44.28L45.93 59H47.49L45.73 56.18C46.2302 56.0958 46.6859 55.8415 47.02 55.46C47.32 55.1 47.46 54.66 47.46 54.12C47.46 53.47 47.25 52.94 46.82 52.54C46.39 52.14 45.76 51.94 44.94 51.94H42.25V59H43.66V59ZM44.82 55.28H43.66V53.13H44.82C45.23 53.13 45.54 53.23 45.73 53.41C45.93 53.61 46.03 53.87 46.03 54.21C46.03 54.92 45.63 55.28 44.82 55.28V55.28ZM53.62 59V57.87H50.82V55.97H53.32V54.89H50.82V53.06H53.62V51.94H49.41V59H53.62ZM57.07 59V56.38H58.23C59.03 56.38 59.66 56.18 60.09 55.78C60.53 55.38 60.75 54.84 60.75 54.17C60.75 53.48 60.54 52.94 60.12 52.54C59.69 52.14 59.06 51.94 58.23 51.94H55.66V59H57.07ZM58.08 55.25H57.07V53.08H58.08C58.52 53.08 58.84 53.18 59.03 53.36C59.23 53.55 59.32 53.82 59.32 54.17C59.32 54.89 58.91 55.25 58.08 55.25V55.25ZM63.64 59L64.14 57.58H66.97L67.46 59H68.95L66.36 52.02H64.75L62.15 59H63.64ZM66.59 56.51H64.51L65.55 53.53L66.59 56.51V56.51ZM72.12 59V51.94H70.71V59H72.12ZM75.81 59V56.25H76.43L78.08 59H79.64L77.88 56.18C78.3765 56.0937 78.8284 55.8395 79.16 55.46C79.46 55.1 79.61 54.66 79.61 54.12C79.61 53.47 79.39 52.94 78.96 52.54C78.53 52.14 77.91 51.94 77.09 51.94H74.4V59H75.81ZM76.97 55.28H75.81V53.13H76.97C77.38 53.13 77.69 53.23 77.88 53.41C78.08 53.61 78.18 53.87 78.18 54.21C78.18 54.92 77.78 55.28 76.97 55.28V55.28Z" fill="black"></path></svg>