<svg xmlns="http://www.w3.org/2000/svg" width="68" height="40" viewBox="0 0 68 40" fill="none"><path fill-rule="evenodd" clip-rule="evenodd" d="M40.91 6.77C39.49 6.77 37.36 7.54 37.36 8.77C37.36 10.01 38.36 10.94 40.15 11.3C42.18 11.7 44.72 11.97 46.29 13.05C47.84 14.11 49.69 16.39 49.74 20.45C49.8 25.39 46.29 29.09 41.22 29.09H29.64V22.3H38.63C41.67 22.3 42.23 20.76 42.23 19.94C42.23 19.11 41.27 17.78 38.98 17.78C35.73 17.78 34.31 17.42 31.83 14.74C30.73 13.57 29.85 11.5 29.85 8.32C29.85 4 34.31 0.5 36.95 0.5H67V6.77H40.91V6.77ZM52.18 29.1H67V22.3H52.18V29.09V29.1ZM52.18 18H67V11.2H52.18V18ZM14.55 17.58L19.9 6.6V17.57H14.55V17.58ZM22.87 0.509998H14.14L0 29.5H8.73L12.54 21.68H19.9V29.5H27.2V0.5H22.87V0.509998ZM5.97 34.07H9V32.5H5.37C4.65 32.5 3 32.9 3 34.59V37.78C3 38.37 3.86 39.5 5.37 39.5H9V37.93H5.97C5.37 37.93 4.85 37.8 4.85 35.76C4.85 34.33 5.37 34.07 5.97 34.07V34.07ZM36 39.5H38V32.5H36V39.5ZM47 39.5H49V32.5H47V39.5ZM13.05 32.5H11V39.46H12.7V39.5H17V38.13H13.05V36.63H17V35.26H13.05V33.9H17V32.53H13.05V32.5ZM31.93 32.5H30V32.53H28V34.1H30V39.5H31.93V34.1H34V32.53H31.93V32.5ZM57 33.9V32.53H53.05V32.5H51V39.46H52.7V39.5H57V38.13H53.05V36.63H57V35.26H53.05V33.9H57ZM41.05 32.5H39V39.5H41.05V37.1H44.79V35.73H41.05V33.9H45V32.53H41.05V32.5ZM25.03 37.08C25.51 37.1 27 36.98 27 34.85C27 33.15 26.15 32.5 25.16 32.5H19V39.5H20.98V34.07L23.18 34.09C23.96 34.09 24.77 33.91 24.77 34.95C24.77 35.99 23.74 35.89 23.74 35.89L23.79 35.94L22.12 36.02L24.59 39.5H26.79L25.32 37.49L25.02 37.08H25.03ZM62 34.14V37.78H64.63C65.18 37.78 65.94 37.52 65.94 36.15C65.94 34.79 65.66 34.14 64.43 34.14H61.99H62ZM62 39.5H60V32.5H65.46C66.49 32.5 68 33.35 68 35.5V37.13C68 38.3 67.52 39.5 65.05 39.5H61.99H62Z" fill="black"></path></svg>