<svg xmlns="http://www.w3.org/2000/svg" width="56" height="61" viewBox="0 0 56 61" fill="none"><path fill-rule="evenodd" clip-rule="evenodd" d="M31.1 11.5L32.49 12.61L25.49 21.41L24.09 20.29L31.1 11.5Z" fill="black"></path><path fill-rule="evenodd" clip-rule="evenodd" d="M32.98 7.42999L31.8 8.89999C31.49 9.29999 31.58 9.88999 32 10.22L33.54 11.45C33.96 11.79 34.56 11.75 34.87 11.35L36.05 9.87999C36.22 10.68 36.05 11.53 35.53 12.2C34.56 13.42 32.71 13.57 31.42 12.53C30.12 11.5 29.86 9.66999 30.83 8.44999C31.0891 8.12982 31.4168 7.87193 31.789 7.69539C32.1611 7.51884 32.5681 7.42815 32.98 7.42999V7.42999Z" fill="black"></path><path d="M31.4113 12.5432C31.8864 12.9219 32.5505 12.8788 32.8948 12.447C33.2391 12.0151 33.133 11.358 32.658 10.9793C32.1829 10.6007 31.5188 10.6438 31.1745 11.0756C30.8302 11.5075 30.9363 12.1646 31.4113 12.5432Z" fill="black"></path><path fill-rule="evenodd" clip-rule="evenodd" d="M23.6 25.49L24.79 24C25.1 23.61 25.01 23.02 24.59 22.68L23.05 21.46C22.63 21.12 22.03 21.16 21.72 21.56L20.54 23.03C20.37 22.23 20.54 21.38 21.06 20.71C22.04 19.49 23.88 19.34 25.17 20.37C26.47 21.4 26.73 23.23 25.76 24.45C25.5029 24.7707 25.1773 25.0297 24.8069 25.2079C24.4366 25.3862 24.031 25.4792 23.62 25.48L23.6 25.49Z" fill="black"></path><path d="M25.1695 20.3791C24.6945 20.0004 24.0303 20.0435 23.686 20.4754C23.3418 20.9073 23.4478 21.5643 23.9229 21.943C24.3979 22.3217 25.0621 22.2786 25.4063 21.8467C25.7506 21.4149 25.6446 20.7578 25.1695 20.3791Z" fill="black"></path><path fill-rule="evenodd" clip-rule="evenodd" d="M31.93 13.06C31.96 13.02 31.91 12.92 31.81 12.84L31.45 12.56C31.35 12.48 31.25 12.45 31.21 12.49L25.18 20.06C25.14 20.1 25.2 20.2 25.3 20.28L25.65 20.56C25.75 20.64 25.86 20.67 25.89 20.63L31.93 13.06V13.06Z" fill="black"></path><path fill-rule="evenodd" clip-rule="evenodd" d="M37.1 30.57H11H19.67L11 15.29L19.67 0H11H45.78H37.11L45.78 15.29L37.11 30.57H37.1ZM28.4 4.53C29.8183 4.52474 31.2237 4.79888 32.536 5.33677C33.8484 5.87467 35.0419 6.66578 36.0485 7.66494C37.0551 8.6641 37.855 9.85174 38.4026 11.1601C38.9502 12.4684 39.2348 13.8717 39.24 15.29C39.2348 16.7091 38.9499 18.1133 38.4017 19.4223C37.8534 20.7312 37.0526 21.9193 36.045 22.9186C35.0373 23.9179 33.8426 24.7088 32.5291 25.2461C31.2156 25.7834 29.8091 26.0566 28.39 26.05C26.9709 26.0566 25.5644 25.7834 24.2509 25.2461C22.9374 24.7088 21.7427 23.9179 20.735 22.9186C19.7274 21.9193 18.9266 20.7312 18.3783 19.4223C17.8301 18.1133 17.5452 16.7091 17.54 15.29C17.5452 13.87 17.8304 12.465 18.3793 11.1554C18.9281 9.84579 19.7299 8.65726 20.7386 7.65784C21.7473 6.65842 22.9432 5.86772 24.2578 5.33101C25.5725 4.7943 26.98 4.5221 28.4 4.53V4.53Z" fill="black"></path><path d="M3.92999 48.06C4.80999 48.06 5.52999 47.83 6.11999 47.38C6.69999 46.93 7.08 46.31 7.27 45.53H5.78999C5.62999 45.91 5.39 46.21 5.07 46.43C4.75 46.65 4.36 46.76 3.91 46.76C3.55142 46.7629 3.19957 46.6626 2.89639 46.4711C2.59321 46.2797 2.35147 46.005 2.19999 45.68C2.02629 45.3008 1.94082 44.8871 1.94999 44.47C1.94999 44 2.02999 43.6 2.19999 43.25C2.35076 42.9265 2.59094 42.653 2.89218 42.4616C3.19341 42.2702 3.54311 42.169 3.89999 42.17C4.35999 42.17 4.75 42.28 5.07 42.5C5.39 42.72 5.62999 43.02 5.78999 43.4H7.27C7.11323 42.6685 6.7066 42.0144 6.11999 41.55C5.48618 41.0781 4.70956 40.838 3.91999 40.87C3.24999 40.87 2.65 41.02 2.14 41.33C1.62 41.63 1.22 42.05 0.939999 42.6C0.650527 43.1801 0.506392 43.8219 0.520001 44.47C0.520001 45.17 0.659999 45.78 0.939999 46.33C1.22 46.88 1.62 47.3 2.14 47.61C2.66 47.91 3.24999 48.06 3.92999 48.06V48.06ZM13.53 48V46.87H10.73V44.97H13.23V43.89H10.73V42.06H13.53V40.94H9.33V48H13.53ZM16.99 48V45.25H17.61L19.26 48H20.82L19.06 45.18C19.5565 45.0937 20.0084 44.8395 20.34 44.46C20.64 44.1 20.79 43.66 20.79 43.12C20.79 42.47 20.57 41.94 20.14 41.54C19.71 41.14 19.09 40.94 18.27 40.94H15.57V48H17H16.99ZM18.15 44.28H16.99V42.13H18.15C18.55 42.13 18.86 42.23 19.06 42.41C19.26 42.61 19.36 42.87 19.36 43.21C19.36 43.92 18.96 44.28 18.15 44.28V44.28ZM25.59 48V42.06H27.54V40.94H22.24V42.06H24.17V48H25.58H25.59ZM30.73 48V40.94H29.32V48H30.72H30.73ZM34.42 48V45.03H36.8V43.95H34.42V42.06H37.39V40.94H33V48H34.4H34.42ZM40.75 48V40.94H39.34V48H40.74H40.75ZM47.24 48V46.87H44.44V44.97H46.94V43.89H44.44V42.06H47.24V40.94H43.03V48H47.23H47.24ZM51.79 48C52.55 48 53.21 47.85 53.77 47.55C54.33 47.25 54.75 46.85 55.05 46.31C55.34 45.78 55.49 45.16 55.49 44.46C55.49 43.76 55.34 43.14 55.05 42.61C54.7572 42.0803 54.311 41.6515 53.77 41.38C53.1553 41.0753 52.4759 40.9243 51.79 40.94H49.28V48H51.78H51.79ZM51.67 46.74H50.69V42.17H51.67C52.43 42.17 53.01 42.37 53.43 42.77C53.85 43.17 54.06 43.73 54.06 44.46C54.06 45.18 53.85 45.74 53.43 46.14C53.01 46.54 52.43 46.74 51.66 46.74H51.67ZM8.19 60.07C8.69 60.07 9.12999 59.97 9.47999 59.8C9.82999 59.61 10.1 59.37 10.28 59.07C10.46 58.77 10.55 58.43 10.55 58.07C10.55 57.62 10.45 57.25 10.25 56.97C10.05 56.69 9.80999 56.48 9.52999 56.34C9.16904 56.1686 8.79841 56.0184 8.41999 55.89C8.08999 55.79 7.83999 55.69 7.64999 55.6C7.44999 55.51 7.29999 55.4 7.17999 55.27C7.05176 55.1278 6.98367 54.9414 6.99 54.75C6.99 54.49 7.06999 54.29 7.22999 54.15C7.38999 54.02 7.6 53.95 7.86 53.95C8.12019 53.9377 8.37493 54.0274 8.57 54.2C8.74 54.36 8.85 54.57 8.89 54.82H10.41C10.3902 54.5414 10.3134 54.2699 10.1844 54.0222C10.0554 53.7745 9.87692 53.5559 9.66 53.38C9.14471 52.9965 8.51141 52.8054 7.86999 52.84C7.14999 52.84 6.57 53.02 6.14 53.37C5.7 53.72 5.47999 54.19 5.47999 54.8C5.46404 55.151 5.55117 55.499 5.73065 55.8011C5.91012 56.1032 6.1741 56.3462 6.49 56.5C6.77 56.64 7.13 56.78 7.57 56.93C7.91 57.04 8.16999 57.14 8.36999 57.23C8.56999 57.32 8.72 57.43 8.85 57.58C8.97777 57.7304 9.04543 57.9227 9.03999 58.12C9.03999 58.37 8.95999 58.57 8.80999 58.72C8.64999 58.88 8.42 58.96 8.13 58.96C7.84839 58.9738 7.57253 58.8769 7.36139 58.6901C7.15024 58.5032 7.02054 58.2412 7 57.96H5.5C5.52239 58.367 5.66164 58.7589 5.90107 59.0888C6.14051 59.4187 6.46998 59.6726 6.85 59.82C7.25 59.99 7.69 60.07 8.19 60.07V60.07ZM16.8 60V58.87H14V56.97H16.5V55.89H14V54.06H16.8V52.94H12.59V60H16.8ZM20.25 60V57.25H20.87L22.52 60H24.08L22.32 57.18C22.8201 57.0959 23.2758 56.8415 23.61 56.46C23.91 56.1 24.05 55.66 24.05 55.12C24.05 54.47 23.84 53.94 23.41 53.54C22.98 53.14 22.35 52.94 21.53 52.94H18.84V60H20.25V60ZM21.41 56.28H20.25V54.13H21.41C21.82 54.13 22.13 54.23 22.33 54.41C22.53 54.61 22.62 54.87 22.62 55.21C22.62 55.92 22.22 56.28 21.41 56.28V56.28ZM29.79 60L32.29 52.94H30.78L28.88 58.53L26.99 52.94H25.48L27.98 60H29.79V60ZM35.46 60V52.94H34.05V60H35.46ZM40.93 60.06C41.81 60.06 42.54 59.83 43.12 59.38C43.7 58.93 44.08 58.31 44.27 57.53H42.79C42.64 57.91 42.39 58.21 42.08 58.43C41.75 58.65 41.36 58.76 40.91 58.76C40.5514 58.7629 40.1996 58.6626 39.8964 58.4711C39.5932 58.2797 39.3515 58.005 39.2 57.68C39.0263 57.3008 38.9408 56.8871 38.95 56.47C38.95 56 39.03 55.6 39.2 55.25C39.3515 54.925 39.5932 54.6504 39.8964 54.4589C40.1996 54.2674 40.5514 54.1671 40.91 54.17C41.36 54.17 41.75 54.28 42.08 54.5C42.4 54.72 42.64 55.02 42.79 55.4H44.27C44.1132 54.6685 43.7066 54.0144 43.12 53.55C42.4889 53.0803 41.7162 52.8403 40.93 52.87C40.25 52.87 39.65 53.02 39.14 53.33C38.63 53.63 38.23 54.05 37.94 54.6C37.6505 55.1801 37.5064 55.8219 37.52 56.47C37.52 57.17 37.66 57.78 37.95 58.33C38.23 58.88 38.63 59.3 39.15 59.61C39.66 59.91 40.25 60.06 40.93 60.06V60.06ZM50.54 60V58.87H47.74V56.97H50.24V55.89H47.74V54.06H50.54V52.94H46.33V60H50.54Z" fill="black"></path></svg>