<svg xmlns="http://www.w3.org/2000/svg" xmlns:xlink="http://www.w3.org/1999/xlink" width="188" height="35" viewBox="0 0 188 35"><defs><path id="a" d="M0 0h24.03v35H0z"/><path id="c" d="M-2.71 35.95V5.78L9.07 35.95h5.83L26.62 5.78v30.17h6.7V-4.3h-8.04L12.1 27.84-1.3-4.3h-8.05v40.25z"/></defs><g fill="none" fill-rule="evenodd"><path fill="#171616" fill-rule="nonzero" d="M42.05 26.9v-9.96l3.51 9.97h3.4l3.48-9.94v9.94h3.91V11H51.6L47.3 22.08l-4.37-11.07h-4.8v15.9h3.92zm23.09 0l1-2.91h6.08l1 2.92h4.18L71.46 11h-4.51l-5.94 15.9h4.13zm6.07-5.86h-4.05l2.04-5.89 2.01 5.9zm18.23 6c2.06 0 3.77-.54 5.12-1.61a7.38 7.38 0 002.63-4.34h-4.15a3.79 3.79 0 01-3.67 2.35 3.47 3.47 0 01-2.77-1.23 4.94 4.94 0 01-1.06-3.32c0-1.39.36-2.5 1.06-3.33a3.46 3.46 0 012.77-1.24 3.77 3.77 0 013.67 2.38h4.15a7.34 7.34 0 00-2.63-4.35 7.99 7.99 0 00-5.12-1.61c-1.57 0-2.96.34-4.15 1.03a7.03 7.03 0 00-2.76 2.89 8.98 8.98 0 00-.97 4.23c0 1.59.32 3 .97 4.24A7.03 7.03 0 0085.29 26a8.16 8.16 0 004.15 1.03zm20.47 0c2.07 0 3.77-.54 5.12-1.61a7.38 7.38 0 002.63-4.34h-4.15a3.79 3.79 0 01-3.67 2.35 3.47 3.47 0 01-2.77-1.23 4.94 4.94 0 01-1.05-3.32c0-1.39.35-2.5 1.05-3.33a3.46 3.46 0 012.77-1.24 3.77 3.77 0 013.67 2.38h4.15a7.34 7.34 0 00-2.63-4.35 7.99 7.99 0 00-5.12-1.61c-1.57 0-2.95.34-4.15 1.03a7.03 7.03 0 00-2.76 2.89 8.98 8.98 0 00-.97 4.23c0 1.59.32 3 .97 4.24a7.03 7.03 0 002.76 2.88 8.16 8.16 0 004.15 1.03zm17-.13v-6.68h6.13v6.68H137V10.9h-3.95v6.2h-6.14v-6.2h-3.92v16h3.92zm19.82 0V10.9h-3.92v16h3.92zm9.75 0v-9.83l6.56 9.83h3.91V10.9h-3.91v9.92l-6.56-9.92h-3.92v16h3.92zm19.26 0l1-2.92h6.08l1 2.92H188L182.06 11h-4.51l-5.94 15.9h4.13zm6.07-5.87h-4.05l2.04-5.89 2.01 5.9z"/><mask id="b" fill="#fff"><use xlink:href="#a"/></mask><g fill-rule="nonzero" mask="url(#b)"><use fill="#000" xlink:href="#c"/><use fill="#DB2411" xlink:href="#c"/></g></g></svg>